<svg width="1027" height="223" viewBox="0 0 1027 223" fill="none" xmlns="http://www.w3.org/2000/svg">
<g clip-path="url(#clip0_35_98)">
<path d="M314.64 82.8698C311.18 82.8698 308.26 81.7298 305.89 79.4498C303.52 77.1698 302.33 74.2998 302.33 70.8398C302.33 67.3798 303.52 64.5898 305.89 62.2798C308.26 59.9698 311.15 58.8198 314.55 58.8198C317.95 58.8198 320.82 59.9698 323.16 62.2798C325.5 64.5898 326.67 67.4398 326.67 70.8398C326.67 74.2398 325.52 77.1698 323.21 79.4498C320.9 81.7298 318.05 82.8698 314.65 82.8698H314.64ZM302.71 95.2798H326.18V191.48H302.71V95.2798Z" fill="#091120"/>
<path d="M430.37 191.48H403.34L381.41 153.67L367.94 169.73V191.47H344.47V47.1799H367.94V133.28L399.78 95.2799H430.47L397.47 134.63L430.37 191.48Z" fill="#091120"/>
<path d="M454.51 82.8698C451.05 82.8698 448.13 81.7298 445.76 79.4498C443.39 77.1698 442.2 74.2998 442.2 70.8398C442.2 67.3798 443.39 64.5898 445.76 62.2798C448.13 59.9698 451.02 58.8198 454.42 58.8198C457.82 58.8198 460.69 59.9698 463.03 62.2798C465.37 64.5898 466.54 67.4398 466.54 70.8398C466.54 74.2398 465.39 77.1698 463.08 79.4498C460.77 81.7298 457.92 82.8698 454.52 82.8698H454.51ZM442.58 95.2798H466.05V191.48H442.58V95.2798Z" fill="#091120"/>
<path d="M572.45 130.68V191.48H548.98V136.84C548.98 133.06 548.05 129.61 546.19 126.5C544.33 123.39 541.84 120.92 538.73 119.09C535.62 117.26 532.17 116.35 528.39 116.35C524.61 116.35 521.16 117.26 518.05 119.09C514.94 120.92 512.47 123.39 510.64 126.5C508.81 129.61 507.9 133.06 507.9 136.84V191.48H484.43L484.33 47.1799H507.8L507.9 103.84C511.17 100.38 515.08 97.6299 519.64 95.6099C524.19 93.5899 529.1 92.5799 534.36 92.5799C541.35 92.5799 547.73 94.2999 553.5 97.7299C559.27 101.16 563.87 105.75 567.3 111.49C570.73 117.23 572.45 123.63 572.45 130.68Z" fill="#091120"/>
<path d="M629.21 193.98C620.36 193.98 612.29 191.7 605.02 187.15C597.74 182.6 591.94 176.49 587.61 168.82C583.28 161.16 581.12 152.67 581.12 143.38C581.12 136.33 582.37 129.74 584.87 123.61C587.37 117.49 590.82 112.1 595.21 107.45C599.6 102.8 604.72 99.1598 610.55 96.5298C616.38 93.8998 622.61 92.5898 629.21 92.5898C638.06 92.5898 646.13 94.8698 653.4 99.4198C660.68 103.97 666.48 110.1 670.81 117.79C675.14 125.48 677.3 134.02 677.3 143.38C677.3 150.37 676.05 156.91 673.55 163C671.05 169.09 667.6 174.46 663.21 179.11C658.82 183.76 653.72 187.4 647.91 190.03C642.11 192.66 635.87 193.97 629.2 193.97L629.21 193.98ZM629.21 170.5C633.89 170.5 638.09 169.25 641.81 166.75C645.53 164.25 648.46 160.95 650.61 156.84C652.76 152.74 653.83 148.25 653.83 143.37C653.83 138.49 652.72 133.8 650.51 129.66C648.3 125.52 645.31 122.22 641.56 119.75C637.81 117.28 633.69 116.05 629.2 116.05C624.71 116.05 620.41 117.3 616.69 119.8C612.97 122.3 610.02 125.64 607.84 129.8C605.66 133.97 604.57 138.49 604.57 143.36C604.57 148.23 605.69 153.01 607.94 157.12C610.18 161.22 613.18 164.48 616.94 166.88C620.69 169.29 624.78 170.49 629.2 170.49L629.21 170.5Z" fill="#091120"/>
<path d="M689.81 191.48V95.2798H713.28V103.84C716.55 100.38 720.46 97.6298 725.02 95.6098C729.57 93.5898 734.48 92.5798 739.74 92.5798C746.41 92.5798 752.55 94.1498 758.16 97.2898C763.77 100.43 768.24 104.63 771.58 109.89C774.98 104.63 779.47 100.43 785.05 97.2898C790.63 94.1498 796.75 92.5798 803.42 92.5798C810.47 92.5798 816.87 94.2998 822.61 97.7298C828.35 101.16 832.94 105.75 836.37 111.49C839.8 117.23 841.52 123.63 841.52 130.68V191.48H818.05V136.94C818.05 133.22 817.14 129.81 815.31 126.69C813.48 123.58 811.04 121.08 808 119.19C804.95 117.3 801.54 116.35 797.75 116.35C793.96 116.35 790.55 117.26 787.5 119.09C784.45 120.92 782 123.37 780.14 126.45C778.28 129.53 777.35 133.02 777.35 136.94V191.48H753.88V136.94C753.88 133.03 752.98 129.53 751.19 126.45C749.39 123.37 746.96 120.92 743.88 119.09C740.8 117.26 737.37 116.35 733.59 116.35C729.81 116.35 726.47 117.3 723.39 119.19C720.31 121.08 717.86 123.58 716.03 126.69C714.2 129.8 713.29 133.22 713.29 136.94V191.48H689.82H689.81Z" fill="#091120"/>
<path d="M898.27 193.98C889.42 193.98 881.35 191.7 874.08 187.15C866.8 182.6 861 176.47 856.67 168.78C852.34 161.08 850.18 152.59 850.18 143.29C850.18 136.3 851.43 129.74 853.93 123.62C856.43 117.5 859.88 112.11 864.27 107.46C868.66 102.81 873.78 99.1699 879.61 96.5399C885.44 93.9099 891.67 92.5999 898.27 92.5999C905.77 92.5999 912.65 94.1899 918.9 97.3599C925.15 100.53 930.46 104.88 934.82 110.4C939.18 115.92 942.36 122.2 944.34 129.25C946.33 136.31 946.78 143.68 945.69 151.38H875.37C876.27 154.97 877.74 158.2 879.79 161.05C881.84 163.9 884.44 166.18 887.58 167.88C890.72 169.58 894.28 170.46 898.26 170.53C902.36 170.59 906.1 169.62 909.47 167.6C912.84 165.58 915.64 162.84 917.89 159.37L941.84 164.95C937.93 173.48 932.09 180.45 924.33 185.87C916.57 191.29 907.88 194 898.26 194L898.27 193.98ZM874.61 133.76H921.94C921.23 129.91 919.74 126.43 917.47 123.32C915.19 120.21 912.39 117.73 909.05 115.86C905.72 114 902.12 113.07 898.28 113.07C894.44 113.07 890.87 113.98 887.6 115.81C884.33 117.64 881.55 120.11 879.28 123.22C877 126.33 875.45 129.84 874.61 133.75V133.76Z" fill="#091120"/>
<path d="M987.16 193.21C982.16 192.89 977.33 191.88 972.68 190.18C968.03 188.48 963.91 186.16 960.32 183.21C956.73 180.26 953.97 176.73 952.05 172.63L971.87 164.16C972.64 165.44 973.89 166.81 975.62 168.25C977.35 169.69 979.42 170.9 981.83 171.86C984.23 172.82 986.88 173.3 989.77 173.3C992.21 173.3 994.53 172.96 996.74 172.29C998.95 171.62 1000.75 170.58 1002.13 169.16C1003.51 167.75 1004.2 165.92 1004.2 163.68C1004.2 161.31 1003.38 159.46 1001.75 158.15C1000.11 156.84 998.06 155.84 995.59 155.17C993.12 154.5 990.73 153.87 988.42 153.29C982.33 152.07 976.67 150.18 971.44 147.61C966.21 145.05 962.01 141.73 958.84 137.65C955.67 133.58 954.08 128.66 954.08 122.88C954.08 116.53 955.76 111.05 959.13 106.43C962.5 101.81 966.89 98.25 972.31 95.75C977.73 93.25 983.58 92 989.87 92C997.5 92 1004.51 93.59 1010.89 96.76C1017.27 99.93 1022.32 104.41 1026.04 110.18L1007.47 121.15C1006.57 119.61 1005.32 118.18 1003.72 116.87C1002.12 115.56 1000.29 114.47 998.24 113.6C996.19 112.73 994.04 112.24 991.79 112.11C988.9 111.98 986.27 112.24 983.9 112.88C981.53 113.52 979.62 114.61 978.18 116.15C976.74 117.69 976.02 119.74 976.02 122.31C976.02 124.88 976.98 126.56 978.91 127.75C980.83 128.94 983.16 129.85 985.88 130.49C988.6 131.13 991.22 131.84 993.72 132.61C999.36 134.47 1004.67 136.75 1009.64 139.44C1014.61 142.13 1018.6 145.44 1021.62 149.35C1024.63 153.26 1026.08 157.94 1025.95 163.39C1025.95 169.61 1024.09 175.05 1020.37 179.7C1016.65 184.35 1011.86 187.89 1005.99 190.33C1000.12 192.77 993.85 193.73 987.18 193.22L987.16 193.21Z" fill="#091120"/>
<path d="M61.04 178.06C60.76 177.4 60.42 176.76 60.02 176.16C59.62 175.56 59.16 175 58.66 174.49C58.15 173.98 57.59 173.52 56.98 173.12C56.39 172.73 55.75 172.39 55.09 172.11C54.42 171.84 53.73 171.62 53.03 171.48C51.61 171.2 50.15 171.2 48.73 171.48C48.03 171.62 47.33 171.84 46.67 172.11C46.01 172.39 45.37 172.73 44.77 173.12C44.17 173.52 43.61 173.98 43.1 174.49C42.59 175 42.13 175.56 41.73 176.16C41.34 176.76 41 177.4 40.72 178.06C40.45 178.72 40.23 179.42 40.09 180.12C39.95 180.83 39.88 181.55 39.88 182.27C39.88 182.99 39.95 183.71 40.09 184.42C40.23 185.12 40.45 185.81 40.72 186.47C41 187.14 41.34 187.78 41.73 188.37C42.13 188.98 42.59 189.54 43.1 190.04C43.61 190.55 44.17 191.01 44.77 191.41C45.37 191.81 46.01 192.15 46.67 192.42C47.33 192.7 48.03 192.91 48.73 193.05C49.44 193.19 50.16 193.27 50.88 193.27C51.6 193.27 52.32 193.19 53.03 193.05C53.73 192.91 54.42 192.7 55.09 192.42C55.75 192.15 56.39 191.81 56.98 191.41C57.59 191.01 58.15 190.55 58.66 190.04C59.17 189.53 59.62 188.98 60.02 188.37C60.42 187.78 60.76 187.14 61.04 186.47C61.31 185.81 61.52 185.12 61.66 184.42C61.81 183.71 61.88 182.98 61.88 182.27C61.88 181.56 61.81 180.83 61.66 180.12C61.52 179.42 61.31 178.72 61.04 178.06Z" fill="#23696A"/>
<path d="M271.23 39.2199L162.7 0.629906C159.33 -0.570094 155.59 -0.0500944 152.67 2.00991C149.75 4.06991 148.01 7.41991 148.01 10.9999V169.9H133.83V47.1799C133.83 43.3599 131.85 39.8199 128.6 37.8199C125.35 35.8199 121.3 35.6399 117.89 37.3599L45.93 73.5399C42.22 75.4099 39.87 79.2099 39.87 83.3699V108.06H10.99C4.90999 108.06 -0.0100098 112.98 -0.0100098 119.06C-0.0100098 125.14 4.90999 130.06 10.99 130.06H39.87V155.26C39.87 161.34 44.8 166.26 50.87 166.26H86.65C92.73 166.26 97.65 161.33 97.65 155.26V119.06C97.65 112.98 92.73 108.06 86.65 108.06H61.87V90.1599L111.83 65.0399V180.92C111.83 187 116.76 191.92 122.83 191.92H159.01C165.09 191.92 170.01 187 170.01 180.92V26.5799L256.54 57.3399V169.89H242.36V119.53C242.36 113.45 237.44 108.53 231.36 108.53H195.16C192.24 108.53 189.44 109.69 187.38 111.76C185.32 113.82 184.16 116.62 184.16 119.54L184.21 180.9C184.21 186.97 189.14 191.89 195.21 191.89H220.36V211.91C220.36 217.99 225.28 222.91 231.36 222.91C237.44 222.91 242.36 217.99 242.36 211.91V191.89H267.54C273.62 191.89 278.54 186.97 278.54 180.89V49.5799C278.54 44.9299 275.61 40.7699 271.22 39.2199H271.23ZM75.66 130.04V144.24H61.88V130.04H75.66ZM220.37 169.9H206.21L206.18 130.54H220.37V169.9Z" fill="#23696A"/>
</g>
<defs>
<clipPath id="clip0_35_98">
<rect width="1026.03" height="222.92" fill="white"/>
</clipPath>
</defs>
</svg>
